<svg style="display: none;" xmlns="http://www.w3.org/2000/svg" xmlns:xlink="http://www.w3.org/1999/xlink">
    <symbol id="btn-string" viewBox="0 0 37 37">
        <g filter="url(#filter0_i_891_631)">
            <rect width="36.939" height="11.152" rx="2" />
            <rect y="13.242" width="36.939" height="10.454" rx="2" />
            <rect y="25.788" width="36.939" height="11.152" rx="2" />
        </g>
        <defs>
            <filter id="filter0_i_891_631" x="0" y="0" width="37.94" height="39.939" filterUnits="userSpaceOnUse" color-interpolation-filters="sRGB">
                <feFlood flood-opacity="0" result="BackgroundImageFix" />
                <feBlend in="SourceGraphic" in2="BackgroundImageFix" result="shape" />
                <feColorMatrix in="SourceAlpha" values="0 0 0 0 0 0 0 0 0 0 0 0 0 0 0 0 0 0 127 0" result="hardAlpha" />
                <feOffset dx="1" dy="3" />
                <feGaussianBlur stdDeviation="2" />
                <feComposite in2="hardAlpha" operator="arithmetic" k2="-1" k3="1" />
                <feColorMatrix values="0 0 0 0 0 0 0 0 0 0 0 0 0 0 0 0 0 0 0.25 0" />
                <feBlend in2="shape" result="effect1_innerShadow_891_631" />
            </filter>
        </defs>
    </symbol>
    <symbol id="btn-block">
        <rect x=".061" width="17.424" height="17.424" rx="2" />
        <rect x="19.576" width="17.424" height="17.424" rx="2" />
        <rect x=".061" y="19.515" width="17.424" height="17.424" rx="2" />
        <rect x="19.576" y="19.515" width="17.424" height="17.424" rx="2" />
    </symbol>

    <symbol id="telegram">
        <rect width="39" height="39" rx="10" fill="#36ACF2" />
        <g clip-path="url(#clip0_706_1573)">
            <path d="M7.415 19.277l13.693-5.64c1.352-.587 5.941-2.471 5.941-2.471s2.117-.828 1.938 1.171c-.063.828-.535 3.706-.994 6.813l-1.466 9.22s-.115 1.35-1.122 1.592c-1.008.242-2.652-.828-2.945-1.057-.23-.178-4.412-2.815-5.942-4.113-.408-.357-.88-1.057.064-1.885a220.96 220.96 0 006.17-5.87c.702-.701 1.416-2.344-1.53-.357l-8.286 5.577s-.944.586-2.703.064c-1.76-.522-3.825-1.223-3.825-1.223s-1.415-.878.994-1.82h.013z" fill="#fff" />
        </g>
        <defs>
            <clipPath id="clip0_706_1573">
                <path fill="#fff" transform="translate(6 11)" d="M0 0h23v19H0z" />
            </clipPath>
        </defs>
    </symbol>
    <symbol id="vk">
        <rect width="39" height="39" rx="10" fill="#C4C4C4" />
        <g clip-path="url(#clip0_706_1572)">
            <path fill-rule="evenodd" clip-rule="evenodd" d="M18.719 26.938h1.555s.463-.047.71-.297c.216-.218.216-.64.216-.64s-.033-1.966.943-2.263c.959-.28 2.183 1.904 3.473 2.747.976.64 1.736.5 1.736.5l3.474-.047s1.82-.11.96-1.452c-.067-.11-.497-.999-2.581-2.825-2.183-1.904-1.885-1.592.744-4.9 1.604-2.014 2.233-3.231 2.035-3.762-.199-.5-1.373-.375-1.373-.375h-3.904s-.297 0-.512.11c-.215.124-.348.39-.348.39s-.612 1.56-1.439 2.871c-1.736 2.794-2.43 2.935-2.729 2.763-.661-.406-.496-1.623-.496-2.482 0-2.7.43-3.823-.843-4.12-.43-.094-.744-.156-1.82-.172-1.389 0-2.58 0-3.241.313-.447.202-.794.67-.58.686.265.031.844.156 1.159.546.397.516.38 1.67.38 1.67s.232 3.184-.546 3.575c-.529.265-1.257-.281-2.795-2.81a22.48 22.48 0 01-1.39-2.731s-.115-.265-.313-.406c-.249-.171-.596-.234-.596-.234H6.844s-.563.031-.761.265c-.182.203 0 .625 0 .625-.017.03 2.894 6.446 6.186 9.692 3.026 2.965 6.45 2.778 6.45 2.778v-.015z" fill="#fff" />
        </g>
        <defs>
            <clipPath id="clip0_706_1572">
                <path fill="#fff" transform="translate(6 13)" d="M0 0h26v14H0z" />
            </clipPath>
        </defs>
    </symbol>
    <symbol id="ok">
        <rect width="39" height="39" rx="10" fill="#C4C4C4" />
        <g clip-path="url(#clip0_706_1571)" fill-rule="evenodd" clip-rule="evenodd" fill="#fff">
            <path d="M19.721 11.937c1.307 0 2.374 1.042 2.374 2.32 0 1.277-1.067 2.32-2.374 2.32-1.307 0-2.374-1.043-2.374-2.32 0-1.278 1.067-2.32 2.374-2.32zm0 7.909c3.153 0 5.73-2.508 5.73-5.59 0-3.081-2.577-5.6-5.73-5.6-3.153 0-5.73 2.507-5.73 5.6 0 3.094 2.565 5.59 5.73 5.59zM22.035 24.415a10.86 10.86 0 003.321-1.347c.78-.48 1.02-1.5.527-2.262-.491-.773-1.534-.995-2.313-.515-2.35 1.441-5.372 1.441-7.71 0-.779-.48-1.822-.258-2.313.515a1.625 1.625 0 00.527 2.262 10.86 10.86 0 003.321 1.347l-3.201 3.129a1.608 1.608 0 000 2.32 1.7 1.7 0 001.187.48 1.7 1.7 0 001.187-.48l3.141-3.07 3.153 3.07a1.7 1.7 0 002.374 0c.66-.645.66-1.676 0-2.32l-3.201-3.129z" />
        </g>
        <defs>
            <clipPath id="clip0_706_1571">
                <path fill="#fff" transform="translate(13.295 8.656)" d="M0 0h12.852v21.689H0z" />
            </clipPath>
        </defs>
    </symbol>
    <symbol id="ya">
        <rect width="39" height="39" rx="10" fill="#C4C4C4" />
        <path fill-rule="evenodd" clip-rule="evenodd" d="M38.997 19.717v-.43c-8.632-.263-12.581-.478-15.73-3.553-3.076-3.15-3.291-7.1-3.554-15.734h-.43c-.262 8.635-.477 12.584-3.553 15.734-3.149 3.075-7.095 3.29-15.73 3.553v.43c8.632.262 12.581.477 15.73 3.553 3.076 3.149 3.291 7.098 3.553 15.733h.43c.263-8.635.478-12.584 3.553-15.733 3.15-3.076 7.096-3.291 15.73-3.553z" fill="#fff" />
    </symbol>
    <symbol id="loopa">
            <path d="M20.569 10.68c-.084 2.111-.759 4.048-2.05 5.752-.244.324-.09.455.113.658 2.252 2.249 4.5 4.498 6.746 6.753.155.155.315.313.437.492.298.438.232.97-.14 1.343-.375.372-.901.435-1.342.137a3.563 3.563 0 01-.49-.435c-2.238-2.237-4.482-4.468-6.702-6.723-.31-.313-.485-.298-.822-.05-6.16 4.51-14.986.851-16.191-6.703C-.786 6.178 3.306.744 9.038.07c5.612-.658 10.686 3.238 11.45 8.806.08.584.152 1.177.08 1.802zm-2.172-.382c.011-4.483-3.655-8.165-8.11-8.147-4.458.018-8.085 3.649-8.115 8.117-.027 4.436 3.613 8.097 8.083 8.124 4.493.03 8.13-3.587 8.141-8.094z" fill="#0291EB" />
    </symbol>
</svg>