<svg style="display: none;" xmlns="http://www.w3.org/2000/svg" xmlns:xlink="http://www.w3.org/1999/xlink">
    <symbol id="btn-string" viewBox="0 0 37 37">
        <g filter="url(#filter0_i_891_631)">
            <rect width="36.939" height="11.152" rx="2" />
            <rect y="13.242" width="36.939" height="10.454" rx="2" />
            <rect y="25.788" width="36.939" height="11.152" rx="2" />
        </g>
        <defs>
            <filter id="filter0_i_891_631" x="0" y="0" width="37.94" height="39.939" filterUnits="userSpaceOnUse" color-interpolation-filters="sRGB">
                <feFlood flood-opacity="0" result="BackgroundImageFix" />
                <feBlend in="SourceGraphic" in2="BackgroundImageFix" result="shape" />
                <feColorMatrix in="SourceAlpha" values="0 0 0 0 0 0 0 0 0 0 0 0 0 0 0 0 0 0 127 0" result="hardAlpha" />
                <feOffset dx="1" dy="3" />
                <feGaussianBlur stdDeviation="2" />
                <feComposite in2="hardAlpha" operator="arithmetic" k2="-1" k3="1" />
                <feColorMatrix values="0 0 0 0 0 0 0 0 0 0 0 0 0 0 0 0 0 0 0.25 0" />
                <feBlend in2="shape" result="effect1_innerShadow_891_631" />
            </filter>
        </defs>
    </symbol>
    <symbol id="btn-block">
        <rect x=".061" width="17.424" height="17.424" rx="2" />
        <rect x="19.576" width="17.424" height="17.424" rx="2" />
        <rect x=".061" y="19.515" width="17.424" height="17.424" rx="2" />
        <rect x="19.576" y="19.515" width="17.424" height="17.424" rx="2" />
    </symbol>

    <symbol id="telegram">
        <rect width="39" height="39" rx="10" fill="#36ACF2" />
        <g clip-path="url(#clip0_706_1573)">
            <path d="M7.415 19.277l13.693-5.64c1.352-.587 5.941-2.471 5.941-2.471s2.117-.828 1.938 1.171c-.063.828-.535 3.706-.994 6.813l-1.466 9.22s-.115 1.35-1.122 1.592c-1.008.242-2.652-.828-2.945-1.057-.23-.178-4.412-2.815-5.942-4.113-.408-.357-.88-1.057.064-1.885a220.96 220.96 0 006.17-5.87c.702-.701 1.416-2.344-1.53-.357l-8.286 5.577s-.944.586-2.703.064c-1.76-.522-3.825-1.223-3.825-1.223s-1.415-.878.994-1.82h.013z" fill="#fff" />
        </g>
        <defs>
            <clipPath id="clip0_706_1573">
                <path fill="#fff" transform="translate(6 11)" d="M0 0h23v19H0z" />
            </clipPath>
        </defs>
    </symbol>
    <symbol id="vk">
        <rect width="39" height="39" rx="10" fill="#C4C4C4" />
        <g clip-path="url(#clip0_706_1572)">
            <path fill-rule="evenodd" clip-rule="evenodd" d="M18.719 26.938h1.555s.463-.047.71-.297c.216-.218.216-.64.216-.64s-.033-1.966.943-2.263c.959-.28 2.183 1.904 3.473 2.747.976.64 1.736.5 1.736.5l3.474-.047s1.82-.11.96-1.452c-.067-.11-.497-.999-2.581-2.825-2.183-1.904-1.885-1.592.744-4.9 1.604-2.014 2.233-3.231 2.035-3.762-.199-.5-1.373-.375-1.373-.375h-3.904s-.297 0-.512.11c-.215.124-.348.39-.348.39s-.612 1.56-1.439 2.871c-1.736 2.794-2.43 2.935-2.729 2.763-.661-.406-.496-1.623-.496-2.482 0-2.7.43-3.823-.843-4.12-.43-.094-.744-.156-1.82-.172-1.389 0-2.58 0-3.241.313-.447.202-.794.67-.58.686.265.031.844.156 1.159.546.397.516.38 1.67.38 1.67s.232 3.184-.546 3.575c-.529.265-1.257-.281-2.795-2.81a22.48 22.48 0 01-1.39-2.731s-.115-.265-.313-.406c-.249-.171-.596-.234-.596-.234H6.844s-.563.031-.761.265c-.182.203 0 .625 0 .625-.017.03 2.894 6.446 6.186 9.692 3.026 2.965 6.45 2.778 6.45 2.778v-.015z" fill="#fff" />
        </g>
        <defs>
            <clipPath id="clip0_706_1572">
                <path fill="#fff" transform="translate(6 13)" d="M0 0h26v14H0z" />
            </clipPath>
        </defs>
    </symbol>
    <symbol id="ok">
        <rect width="39" height="39" rx="10" fill="#C4C4C4" />
        <g clip-path="url(#clip0_706_1571)" fill-rule="evenodd" clip-rule="evenodd" fill="#fff">
            <path d="M19.721 11.937c1.307 0 2.374 1.042 2.374 2.32 0 1.277-1.067 2.32-2.374 2.32-1.307 0-2.374-1.043-2.374-2.32 0-1.278 1.067-2.32 2.374-2.32zm0 7.909c3.153 0 5.73-2.508 5.73-5.59 0-3.081-2.577-5.6-5.73-5.6-3.153 0-5.73 2.507-5.73 5.6 0 3.094 2.565 5.59 5.73 5.59zM22.035 24.415a10.86 10.86 0 003.321-1.347c.78-.48 1.02-1.5.527-2.262-.491-.773-1.534-.995-2.313-.515-2.35 1.441-5.372 1.441-7.71 0-.779-.48-1.822-.258-2.313.515a1.625 1.625 0 00.527 2.262 10.86 10.86 0 003.321 1.347l-3.201 3.129a1.608 1.608 0 000 2.32 1.7 1.7 0 001.187.48 1.7 1.7 0 001.187-.48l3.141-3.07 3.153 3.07a1.7 1.7 0 002.374 0c.66-.645.66-1.676 0-2.32l-3.201-3.129z" />
        </g>
        <defs>
            <clipPath id="clip0_706_1571">
                <path fill="#fff" transform="translate(13.295 8.656)" d="M0 0h12.852v21.689H0z" />
            </clipPath>
        </defs>
    </symbol>
    <symbol id="ya">
        <rect width="39" height="39" rx="10" fill="#C4C4C4" />
        <path fill-rule="evenodd" clip-rule="evenodd" d="M38.997 19.717v-.43c-8.632-.263-12.581-.478-15.73-3.553-3.076-3.15-3.291-7.1-3.554-15.734h-.43c-.262 8.635-.477 12.584-3.553 15.734-3.149 3.075-7.095 3.29-15.73 3.553v.43c8.632.262 12.581.477 15.73 3.553 3.076 3.149 3.291 7.098 3.553 15.733h.43c.263-8.635.478-12.584 3.553-15.733 3.15-3.076 7.096-3.291 15.73-3.553z" fill="#fff" />
    </symbol>
    <symbol id="loopa">
        <path d="M20.569 10.68c-.084 2.111-.759 4.048-2.05 5.752-.244.324-.09.455.113.658 2.252 2.249 4.5 4.498 6.746 6.753.155.155.315.313.437.492.298.438.232.97-.14 1.343-.375.372-.901.435-1.342.137a3.563 3.563 0 01-.49-.435c-2.238-2.237-4.482-4.468-6.702-6.723-.31-.313-.485-.298-.822-.05-6.16 4.51-14.986.851-16.191-6.703C-.786 6.178 3.306.744 9.038.07c5.612-.658 10.686 3.238 11.45 8.806.08.584.152 1.177.08 1.802zm-2.172-.382c.011-4.483-3.655-8.165-8.11-8.147-4.458.018-8.085 3.649-8.115 8.117-.027 4.436 3.613 8.097 8.083 8.124 4.493.03 8.13-3.587 8.141-8.094z" fill="#0291EB" />
    </symbol>
    <symbol id="geo">
        <g clip-path="url(#clip0_891_609)" fill="#039BE5">
            <path
                d="M9.496 19C4.25 18.998 0 14.744 0 9.496 0 4.234 4.26-.004 9.541 0 14.767.003 19.003 4.276 19 9.54c-.005 5.21-4.271 9.458-9.503 9.458L9.496 19zM9.439 3.333c-.307-.017-.672.038-1.034.12-2.567.572-4.6 3.61-3.05 6.535.992 1.872 2.27 3.53 3.643 5.123.491.57.508.57.992.01 1.336-1.545 2.607-3.137 3.553-4.962.306-.593.586-1.203.633-1.881.188-2.671-1.964-4.944-4.739-4.945h.002z" />
            <path
                d="M11.28 7.964a1.778 1.778 0 01-1.814 1.758c-.982-.01-1.761-.824-1.748-1.825.013-.965.816-1.742 1.796-1.74a1.775 1.775 0 011.766 1.806v.001z" />
        </g>
        <defs>
            <clipPath id="clip0_891_609">
                <path fill="#fff" d="M0 0h19v19H0z" />
            </clipPath>
        </defs>
    </symbol>
    <symbol id="greygeo">
        <g clip-path="url(#clip0_891_644)" fill="#6C6C6C">
            <path
                d="M7.996 16A8.001 8.001 0 010 7.996C0 3.566 3.587-.003 8.035 0c4.4.003 7.968 3.601 7.965 8.033C15.996 12.422 12.403 16 7.998 16L7.996 16zM7.948 2.807c-.258-.015-.565.032-.87.101-2.162.481-3.873 3.04-2.568 5.503.835 1.576 1.91 2.972 3.067 4.314.414.48.428.48.836.008 1.124-1.3 2.195-2.641 2.991-4.178.258-.5.494-1.013.534-1.584.158-2.25-1.654-4.163-3.99-4.164z" />
            <path
                d="M9.5 6.707a1.497 1.497 0 01-1.53 1.48c-.826-.008-1.482-.694-1.47-1.537a1.499 1.499 0 011.512-1.464c.832.004 1.494.68 1.487 1.52z" />
        </g>
        <defs>
            <clipPath id="clip0_891_644">
                <path fill="#fff" d="M0 0h16v16H0z" />
            </clipPath>
        </defs>
    </symbol>
    <symbol id='date'>
        <g clip-path="url(#clip0_891_677)">
            <path
                d="M7.973 15.984H1.859C.71 15.984.004 15.25 0 14.05V3.225C0 2.023.703 1.307 1.863 1.3c.346 0 .687-.008 1.033 0 .194.008.28-.036.287-.271C3.21.186 3.396.032 4.2 0c1.036-.036 1.324.15 1.27 1.307-.024.51.007 1.024-.009 1.534-.007.259.074.291.303.255.757-.126 1.122-.535 1.099-1.356-.012-.38.097-.482.446-.457.49.032.982 0 1.471.012.233.008.319-.06.322-.32.008-.756.233-.97.96-.975 1.245 0 1.323.077 1.323 1.396 0 .461.008.923 0 1.38-.008.255.035.368.326.316.722-.134 1.098-.543 1.079-1.34-.012-.413.124-.502.477-.465.303.028.614 0 .92.008 1.072.016 1.801.76 1.805 1.886.008 1.792 0 3.58 0 5.373 0 1.805-.02 3.61.008 5.415.015 1.112-.734 2.06-1.953 2.027-2.022-.049-4.048-.012-6.074-.012zM6.638 7.478c0 .28.007.562 0 .842-.012.368.174.558.504.566.563.016 1.126.012 1.693 0 .314-.008.512-.182.52-.522.011-.599.011-1.202 0-1.8-.008-.312-.175-.498-.49-.502-.574 0-1.152-.004-1.727 0-.326 0-.493.182-.493.526v.882l-.007.008zm-3.905 4.083c0 .28.007.562 0 .842-.012.368.174.554.504.562.563.016 1.126.012 1.693 0 .318-.008.508-.19.512-.526.008-.599.012-1.202 0-1.8-.008-.312-.182-.498-.493-.498-.574-.004-1.153-.008-1.727 0-.326.004-.49.19-.485.534.003.295 0 .586 0 .882l-.004.004zm5.286-1.42c-.283 0-.562-.004-.846 0-.376.008-.532.17-.535.562-.004.563-.004 1.125 0 1.688 0 .392.155.566.531.574.552.012 1.103.008 1.654 0 .314-.004.516-.178.524-.514.012-.599.012-1.202 0-1.8-.008-.332-.194-.51-.52-.51h-.808zm2.527 1.396v.882c-.003.348.175.534.49.546.574.02 1.152.016 1.727 0 .314-.008.497-.198.5-.538.004-.587.008-1.178 0-1.764-.003-.336-.182-.518-.508-.522-.563 0-1.13-.008-1.692 0-.35.004-.505.178-.513.55-.008.28 0 .562 0 .842l-.004.004zm1.359-5.467c-.268 0-.54-.004-.807 0-.385.008-.544.162-.548.55-.008.575 0 1.15 0 1.724 0 .348.183.534.49.542.574.02 1.152.016 1.727 0 .314-.008.497-.202.5-.542 0-.587.008-1.178 0-1.764-.003-.336-.182-.514-.512-.518h-.846l-.004.008z"
                fill="#6C6C6C" />
        </g>
        <defs>
            <clipPath id="clip0_891_677">
                <path fill="#fff" d="M0 0h16v16H0z" />
            </clipPath>
        </defs>
    </symbol>

    <symbol id="mail">
        <g clip-path="url(#clip0_891_683)">
            <path
                d="M8.01 0c4.417.003 7.996 3.594 7.99 8.017-.006 4.414-3.602 7.992-8.025 7.984C3.563 15.99-.011 12.393 0 7.967.01 3.568 3.6-.003 8.01 0zM8 11.327c1.27 0 2.54.002 3.811 0 .652-.002.982-.327.984-.979.004-1.405.002-2.81 0-4.217 0-.088.05-.21-.048-.257-.091-.045-.167.058-.243.105-1.37.851-2.74 1.7-4.104 2.562-.284.18-.52.176-.804-.004-1.363-.862-2.735-1.71-4.105-2.562-.075-.046-.15-.152-.242-.102-.093.05-.044.171-.044.26a1168.2 1168.2 0 00-.002 4.185c.002.69.323 1.007 1.018 1.008 1.26.002 2.52 0 3.78 0L8 11.327zM3.385 5.741h9.278c-.07-.056-.096-.083-.127-.103C11.08 4.73 9.62 3.826 8.17 2.91c-.165-.104-.263-.042-.388.036-1.402.876-2.806 1.75-4.208 2.627-.065.04-.154.06-.19.167v.001z"
                fill="#0291EB" />
        </g>
        <defs>
            <clipPath id="clip0_891_683">
                <path fill="#fff" d="M0 0h16v16.001H0z" />
            </clipPath>
        </defs>
    </symbol>
    <symbol id="phone">
        <path
            d="M16 8.02c-.012 4.419-3.61 7.994-8.03 7.98C3.554 15.985-.017 12.384 0 7.963.018 3.548 3.622-.021 8.044 0 12.445.02 16.012 3.616 16 8.02zM3.796 5.876c-.007.336.053.61.157.873.903 2.285 2.502 3.924 4.694 4.991.54.263 1.109.486 1.736.43.754-.065 1.277-.514 1.741-1.053.148-.172.089-.351-.06-.501-.463-.465-.923-.933-1.391-1.392-.228-.224-.378-.216-.615.017-.253.247-.493.508-.748.754-.309.297-.638.327-.988.08A10.143 10.143 0 015.967 7.77c-.269-.366-.24-.71.076-1.037.254-.262.514-.517.772-.774.185-.185.212-.384.023-.575-.474-.483-.954-.96-1.436-1.435-.13-.13-.297-.19-.45-.06-.626.54-1.188 1.123-1.156 1.987z"
            fill="#6C6C6C" />
    </symbol>
</svg>